<mxfile host="app.diagrams.net" modified="2024-06-24T11:19:15.810Z" agent="Mozilla/5.0 (Windows NT 10.0; Win64; x64) AppleWebKit/537.36 (KHTML, like Gecko) Chrome/126.0.0.0 Safari/537.36" etag="2f_gK6Jd8CoNrrTe2dps" version="24.6.2" type="github">
  <diagram name="‫עמוד-1‬" id="gKBDEuqH6sBGqguaQnTO">
    <mxGraphModel dx="1050" dy="530" grid="1" gridSize="10" guides="1" tooltips="1" connect="1" arrows="1" fold="1" page="1" pageScale="1" pageWidth="827" pageHeight="1169" math="0" shadow="0">
      <root>
        <mxCell id="0" />
        <mxCell id="1" parent="0" />
        <mxCell id="HIPbf6B8Oow_l-46PK1g-1" value="" style="whiteSpace=wrap;html=1;aspect=fixed;" vertex="1" parent="1">
          <mxGeometry x="280" y="130" width="320" height="320" as="geometry" />
        </mxCell>
        <mxCell id="HIPbf6B8Oow_l-46PK1g-5" value="&lt;font style=&quot;font-size: 15px;&quot;&gt;הוסף עובד חדש&lt;/font&gt;" style="ellipse;whiteSpace=wrap;html=1;" vertex="1" parent="1">
          <mxGeometry x="380" y="150" width="120" height="50" as="geometry" />
        </mxCell>
        <mxCell id="HIPbf6B8Oow_l-46PK1g-6" value="&lt;font style=&quot;font-size: 15px;&quot;&gt;עדכן פרטי עובד&lt;/font&gt;" style="ellipse;whiteSpace=wrap;html=1;" vertex="1" parent="1">
          <mxGeometry x="380" y="290" width="120" height="50" as="geometry" />
        </mxCell>
        <mxCell id="HIPbf6B8Oow_l-46PK1g-7" value="&lt;font style=&quot;font-size: 15px;&quot;&gt;הזן אילוצי משמרות&lt;/font&gt;" style="ellipse;whiteSpace=wrap;html=1;" vertex="1" parent="1">
          <mxGeometry x="380" y="220" width="120" height="50" as="geometry" />
        </mxCell>
        <mxCell id="HIPbf6B8Oow_l-46PK1g-9" value="&lt;span style=&quot;font-size: 15px;&quot;&gt;שבץ עובדים למשמרת&lt;/span&gt;" style="ellipse;whiteSpace=wrap;html=1;" vertex="1" parent="1">
          <mxGeometry x="380" y="360" width="120" height="50" as="geometry" />
        </mxCell>
        <mxCell id="HIPbf6B8Oow_l-46PK1g-15" style="rounded=0;orthogonalLoop=1;jettySize=auto;html=1;endArrow=none;endFill=0;" edge="1" parent="1" source="HIPbf6B8Oow_l-46PK1g-10" target="HIPbf6B8Oow_l-46PK1g-5">
          <mxGeometry relative="1" as="geometry" />
        </mxCell>
        <mxCell id="HIPbf6B8Oow_l-46PK1g-10" value="HR Manager&lt;div&gt;&lt;br&gt;&lt;/div&gt;" style="shape=umlActor;verticalLabelPosition=bottom;verticalAlign=top;html=1;outlineConnect=0;" vertex="1" parent="1">
          <mxGeometry x="90" y="140" width="60" height="110" as="geometry" />
        </mxCell>
        <mxCell id="HIPbf6B8Oow_l-46PK1g-16" style="rounded=0;orthogonalLoop=1;jettySize=auto;html=1;endArrow=none;endFill=0;" edge="1" parent="1" source="HIPbf6B8Oow_l-46PK1g-11" target="HIPbf6B8Oow_l-46PK1g-9">
          <mxGeometry relative="1" as="geometry" />
        </mxCell>
        <mxCell id="HIPbf6B8Oow_l-46PK1g-17" style="rounded=0;orthogonalLoop=1;jettySize=auto;html=1;endArrow=none;endFill=0;" edge="1" parent="1" source="HIPbf6B8Oow_l-46PK1g-11" target="HIPbf6B8Oow_l-46PK1g-6">
          <mxGeometry relative="1" as="geometry" />
        </mxCell>
        <mxCell id="HIPbf6B8Oow_l-46PK1g-11" value="Manager" style="shape=umlActor;verticalLabelPosition=bottom;verticalAlign=top;html=1;outlineConnect=0;" vertex="1" parent="1">
          <mxGeometry x="90" y="320" width="60" height="110" as="geometry" />
        </mxCell>
        <mxCell id="HIPbf6B8Oow_l-46PK1g-14" style="rounded=0;orthogonalLoop=1;jettySize=auto;html=1;strokeColor=default;endArrow=none;endFill=0;" edge="1" parent="1" source="HIPbf6B8Oow_l-46PK1g-12" target="HIPbf6B8Oow_l-46PK1g-7">
          <mxGeometry relative="1" as="geometry" />
        </mxCell>
        <mxCell id="HIPbf6B8Oow_l-46PK1g-12" value="Employee" style="shape=umlActor;verticalLabelPosition=bottom;verticalAlign=top;html=1;outlineConnect=0;" vertex="1" parent="1">
          <mxGeometry x="670" y="180" width="60" height="110" as="geometry" />
        </mxCell>
      </root>
    </mxGraphModel>
  </diagram>
</mxfile>
